<?xml version="1.0" encoding="utf-8"?>
<!-- Generator: Adobe Illustrator 15.1.0, SVG Export Plug-In . SVG Version: 6.00 Build 0)  -->
<!DOCTYPE svg PUBLIC "-//W3C//DTD SVG 1.1//EN" "http://www.w3.org/Graphics/SVG/1.1/DTD/svg11.dtd">
<svg version="1.1" id="Layer_1" xmlns="http://www.w3.org/2000/svg" xmlns:xlink="http://www.w3.org/1999/xlink" x="0px" y="0px"
	 width="50px" height="50px" viewBox="0 0 50 50" enable-background="new 0 0 50 50" xml:space="preserve">
<path fill="#737373" d="M3.714,33.919L13.778,43.98l10.068-10.062c0.15-0.152,0.381-0.258,0.586-0.258
	c0.206,0,0.434,0.105,0.591,0.258l1.279,1.282c0.154,0.151,0.256,0.382,0.256,0.589c0,0.204-0.102,0.437-0.256,0.589L14.368,48.313
	c-0.156,0.153-0.386,0.255-0.59,0.255c-0.202,0-0.432-0.102-0.588-0.255L1.257,36.379C1.103,36.227,1,35.994,1,35.79
	c0-0.207,0.103-0.438,0.257-0.589l1.279-1.282c0.154-0.152,0.356-0.258,0.588-0.258C3.331,33.661,3.562,33.767,3.714,33.919"/>
<path fill="#737373" d="M23.845,16.058L13.78,5.996L3.712,16.058c-0.15,0.153-0.381,0.258-0.586,0.258
	c-0.205,0-0.434-0.105-0.59-0.258l-1.28-1.282C1.102,14.624,1,14.393,1,14.186c0-0.204,0.102-0.436,0.256-0.588L13.19,1.663
	c0.156-0.153,0.386-0.254,0.59-0.254c0.202,0,0.432,0.102,0.588,0.254l11.934,11.935c0.154,0.153,0.257,0.385,0.257,0.588
	c0,0.207-0.103,0.438-0.257,0.59l-1.279,1.282c-0.154,0.153-0.357,0.258-0.589,0.258C24.228,16.316,23.997,16.21,23.845,16.058"/>
</svg>
